#!OML:ASF G:\acrobat\cartwheel_test\acrobat_wednesday\Session 1\acrobatwednesday.ASF
:FULLY-SPECIFIED
:DEGREES
328
root 13.6674 14.4506 -9.90757 60.0656 4.45698 -346.891
lowerback 27.4658 -2.8508 4.61511
upperback 4.89973 -2.07802 1.37427
thorax -9.83393 -1.04344 -0.392536
lowerneck -26.2326 0.601982 -0.932983
upperneck 2.4187 0.928479 1.97198
head 4.72871 0.61581 0.889782
rclavicle 1.74931e-014 3.24019e-014
rhumerus -15.0806 -7.58643 -43.7564
rradius 31.9939
rwrist 17.1948
rhand -30.3563 2.60305
rfingers 7.12502
rthumb -3.66152 -27.3452
lclavicle 1.74931e-014 3.24019e-014
lhumerus -8.91766 10.5165 80.041
lradius 22.8041
lwrist 40.4285
lhand -33.3479 -23.2577
lfingers 7.12502
lthumb -6.55003 6.62102
rfemur -103.034 -16.4072 38.5002
rtibia 64.6633
rfoot 24.3731 22.0831
rtoes -66.0037
lfemur -36.6725 -16.5607 12.753
ltibia -2.34724
lfoot -38.173 -41.992
ltoes 61.9281
329
root 13.6992 14.5336 -9.88933 59.7798 5.98424 -346.769
lowerback 27.1044 -3.11635 2.96658
upperback 5.14346 -2.79249 2.13958
thorax -9.28967 -1.30248 1.63114
lowerneck -27.1744 0.81218 -3.6902
upperneck 2.43382 2.16025 1.78766
head 4.81413 1.18367 1.40434
rclavicle 2.38542e-014 -2.20651e-014
rhumerus -13.4651 -6.00981 -42.5295
rradius 31.6259
rwrist 17.0645
rhand -30.6218 1.88443
rfingers 7.12502
rthumb -3.91794 -28.0593
lclavicle 2.38542e-014 -2.20651e-014
lhumerus -9.78445 14.3126 81.4709
lradius 23.1013
lwrist 39.1687
lhand -33.3367 -23.4382
lfingers 7.12502
lthumb -6.53927 6.44088
rfemur -101.868 -17.4523 38.9645
rtibia 63.4772
rfoot 23.9948 21.9312
rtoes -66.2642
lfemur -37.4427 -16.2215 12.9349
ltibia -1.22379
lfoot -36.703 -42.0877
ltoes 61.1994
330
root 13.7272 14.6328 -9.86385 59.9135 8.02254 -346.886
lowerback 26.424 -2.878 3.88677
upperback 4.89756 -2.39332 1.12323
thorax -9.30407 -1.1644 -0.184722
lowerneck -26.399 0.614552 -2.26987
upperneck 1.91289 1.49029 1.03986
head 4.57467 0.814152 0.856338
rclavicle -3.18055e-015 -3.27995e-014
rhumerus -16.5075 -8.57126 -42.7042
rradius 31.486
rwrist 18.4059
rhand -30.8155 1.59588
rfingers 7.12502
rthumb -4.10496 -28.3443
lclavicle -3.18055e-015 -3.27995e-014
lhumerus -10.4675 11.9665 80.9572
lradius 23.3676
lwrist 39.6274
lhand -33.5708 -23.4762
lfingers 7.12502
lthumb -6.76525 6.3957
rfemur -100.893 -18.249 40.2711
rtibia 62.0166
rfoot 23.6509 21.4369
rtoes -66.5387
lfemur -38.6029 -11.8466 11.3064
ltibia 0.893161
lfoot -28.2671 -41.6696
ltoes 57.7495
331
root 13.7632 14.7399 -9.83775 60.2373 9.60618 -347.01
lowerback 25.6704 -2.68464 4.05493
upperback 4.62623 -2.22228 0.419153
thorax -9.2527 -1.10764 -1.13904
lowerneck -25.8705 0.577796 -1.72207
upperneck 1.46967 1.31593 0.490741
head 4.36992 0.696993 0.569474
rclavicle -1.59028e-014 -2.10712e-014
rhumerus -18.422 -9.94527 -42.5073
rradius 31.4196
rwrist 19.3296
rhand -30.856 1.51764
rfingers 7.12502
rthumb -4.1441 -28.4218
lclavicle -1.59028e-014 -2.10712e-014
lhumerus -11.1934 11.9682 80.7105
lradius 23.4553
lwrist 39.5685
lhand -33.0316 -23.1012
lfingers 7.12502
lthumb -6.24474 6.78672
rfemur -100.107 -18.7918 41.2576
rtibia 60.6928
rfoot 23.1165 21.3392
rtoes -66.503
lfemur -40.2149 -7.85968 9.52269
ltibia 3.30208
lfoot -22.0775 -40.3898
ltoes 53.2862
332
root 13.8111 14.8435 -9.80731 60.4392 10.6759 -347.137
lowerback 24.9208 -2.45692 3.45075
upperback 4.44644 -2.17419 -0.0259438
thorax -9.06204 -1.0781 -1.31969
lowerneck -25.7962 0.552998 -1.96039
upperneck 1.36718 1.40203 0.057975
head 4.32747 0.709098 0.475581
rclavicle 1.59028e-015 9.54166e-015
rhumerus -19.3381 -10.6812 -42.1599
rradius 31.3149
rwrist 19.9977
rhand -31.0008 1.38828
rfingers 7.12502
rthumb -4.28393 -28.5484
lclavicle 1.59028e-015 9.54166e-015
lhumerus -11.9976 13.1774 80.7704
lradius 23.4436
lwrist 39.2273
lhand -32.8752 -22.811
lfingers 7.12502
lthumb -6.09372 7.08134
rfemur -99.2175 -19.2645 41.6559
rtibia 59.5933
rfoot 22.1894 21.9129
rtoes -66.0047
lfemur -41.7716 -4.45097 7.38552
ltibia 5.86474
lfoot -17.6768 -38.8754
ltoes 47.7411
333
root 13.8556 14.9427 -9.75891 60.4172 11.9759 -347.405
lowerback 24.5198 -1.96995 1.74866
upperback 4.19855 -1.9263 0.666897
thorax -9.03907 -0.906467 0.334716
lowerneck -26.0194 0.441422 -3.15164
upperneck 1.54147 1.72041 -0.828658
head 4.40989 0.788174 0.410519
rclavicle -2.06736e-014 1.8487e-014
rhumerus -19.3388 -9.84539 -40.8086
rradius 31.4314
rwrist 19.4498
rhand -31.1397 0.62355
rfingers 7.12502
rthumb -4.41808 -29.3104
lclavicle -2.06736e-014 1.8487e-014
lhumerus -13.5373 13.3408 81.9882
lradius 23.8899
lwrist 39.9292
lhand -35.3682 -23.9287
lfingers 7.12502
lthumb -8.50016 5.88019
rfemur -97.8011 -19.7733 41.9986
rtibia 58.3104
rfoot 20.9216 22.8175
rtoes -65.1851
lfemur -43.2505 -1.17116 5.5123
ltibia 8.56818
lfoot -13.3842 -37.1976
ltoes 39.7809
334
root 13.8888 15.0366 -9.69351 60.0037 13.248 -347.712
lowerback 24.032 -1.91274 1.93061
upperback 4.22135 -1.93065 -0.387353
thorax -8.80365 -0.929901 -0.943045
lowerneck -26.0521 0.347739 -2.50483
upperneck 1.49188 1.40293 -0.866369
head 4.40673 0.637392 0.263898
rclavicle -3.18055e-015 5.56597e-015
rhumerus -20.4424 -11.3759 -41.8298
rradius 31.5668
rwrist 19.5368
rhand -30.5045 -0.0156644
rfingers 7.12502
rthumb -3.80465 -29.9614
lclavicle -3.18055e-015 5.56597e-015
lhumerus -14.475 12.1115 80.2373
lradius 24.204
lwrist 41.7339
lhand -35.6258 -23.8803
lfingers 7.12502
lthumb -8.74868 5.9184
rfemur -95.9651 -20.5111 42.5539
rtibia 56.7101
rfoot 20.4379 22.4325
rtoes -65.161
lfemur -44.242 1.29197 4.21285
ltibia 11.0154
lfoot -13.3798 -34.864
ltoes 36.5135
335
root 13.9183 15.1292 -9.61928 59.3938 14.3303 -348.037
lowerback 23.8764 -1.97275 1.35409
upperback 4.28607 -2.20409 -0.947199
thorax -8.66174 -1.04681 -1.14925
lowerneck -26.3374 0.264687 -3.16725
upperneck 1.47834 1.48439 -0.469155
head 4.43181 0.704559 0.50533
rclavicle -1.19271e-014 1.39149e-014
rhumerus -20.3881 -11.6089 -42.6297
rradius 31.504
rwrist 20.1216
rhand -32.1754 1.04354
rfingers 7.12502
rthumb -5.41811 -28.8672
lclavicle -1.19271e-014 1.39149e-014
lhumerus -15.2742 13.9263 79.4959
lradius 23.6624
lwrist 40.0923
lhand -36.6843 -24.536
lfingers 7.12502
lthumb -9.77005 5.21735
rfemur -94.1295 -21.5241 43.5816
rtibia 54.8643
rfoot 20.3232 20.7577
rtoes -65.8813
lfemur -45.1912 3.82905 2.68364
ltibia 13.7192
lfoot -9.99797 -33.6909
ltoes 23.8221
336
root 13.9512 15.2264 -9.54256 58.7188 15.326 -348.498
lowerback 23.781 -1.79244 0.627332
upperback 4.24408 -2.2019 -1.45184
thorax -8.6528 -1.03258 -1.29038
lowerneck -26.233 0.0708339 -3.71895
upperneck 1.3307 1.37196 -0.142507
head 4.36494 0.673466 0.684073
rclavicle 1.66979e-014 3.1408e-014
rhumerus -20.7854 -10.9862 -43.4525
rradius 32.3653
rwrist 19.0931
rhand -31.8613 -0.570943
rfingers 7.12502
rthumb -5.1148 -30.4892
lclavicle 1.66979e-014 3.1408e-014
lhumerus -16.1754 16.1457 78.8681
lradius 23.0101
lwrist 38.1474
lhand -36.8517 -24.9066
lfingers 7.12502
lthumb -9.9316 4.8391
rfemur -91.899 -22.4151 44.1533
rtibia 52.874
rfoot 19.3689 19.8454
rtoes -66.0255
lfemur -46.5529 6.85964 0.791228
ltibia 17.0862
lfoot 1.39087 -32.6397
ltoes -17.768
337
root 13.9925 15.3292 -9.46715 58.0502 16.3868 -348.824
lowerback 23.6522 -1.6028 -0.101201
upperback 4.19611 -2.17662 -1.86522
thorax -8.62815 -1.00585 -1.33751
lowerneck -26.0432 -0.115289 -3.92701
upperneck 1.14892 1.17481 -0.0401311
head 4.28211 0.586573 0.72752
rclavicle 2.38542e-014 7.79236e-014
rhumerus -20.6923 -11.3309 -44.1672
rradius 32.4724
rwrist 19.3633
rhand -32.2159 -0.742518
rfingers 7.12502
rthumb -5.45722 -30.6522
lclavicle 2.38542e-014 7.79236e-014
lhumerus -17.2414 17.6134 78.0138
lradius 22.7336
lwrist 37.4527
lhand -36.5012 -24.5276
lfingers 7.12502
lthumb -9.59337 5.23394
rfemur -89.0867 -23.2378 43.4994
rtibia 50.8893
rfoot 18.0139 20.1482
rtoes -65.3817
lfemur -48.2733 9.0222 -0.678215
ltibia 20.8474
lfoot 5.18592 -30.5098
ltoes -34.803
